<svg class="diagram-root" style="background: #f5f6f6" xmlns="http://www.w3.org/2000/svg" xmlns:xlink="http://www.w3.org/1999/xlink"><style>.diagram-root { font-family: "Helvetica Neue", sans-serif; font-size: 12px; } .t { overflow: visible; } .t-bg { y: 40; fill: #fff;   } .th { fill: #005aa0;   } .tht { fill: #fff; font-size: 14px;  } .tf { fill: #323c46; overflow: visible; } .tf.pk { fill: #005aa0; font-weight: bold; } .tf.fk { font-weight: bold; } .ty { fill: #adb1b5; font-weight: normal; text-anchor: end; } .r { fill: transparent; stroke: #c3c3c3; stroke-width: 1; } .l { stroke: 1; } .i { fill: #c2c7ce; stroke: #c2c7ce; } .i.ix { fill: #afb3b6; stroke: #000; } .fa { fill: transparent; overflow: visible; } .fa .bg.hover { fill: #f7f7f7; } .c { cy: 12; r: 4; stroke: #d2d2dc; fill: #d2d2dc; } .hr { fill: transparent; stroke: #323c46; stroke-opacity: 0.035; stroke-width: 13; } .dc { stroke: #fa5a3c; fill: #fa5a3c; } .x { stroke: white; stroke-width: 1; } .hl .th { fill: #1b9bff; } .hl .tht {  } .fhl .bg { fill: #e7f4ff; } .fhls .bg {  } .r.hl { stroke: #1b9bff; } .dim { opacity: 0.25; }</style><g class="drawing-wrapper" transform="translate(2, 275.19) scale(1,1)"><g class="rs"><path d="M 217.83 262 m -1, 0 a 1,1 0 1,0 2,0 a 1,1 0 1,0 -2,0 M 217.83 262 m -0.5, 0 a 0.5,0.5 0 1,0 1,0 a 0.5,0.5 0 1,0 -1,0  M217.83 262 L217.83 262 229.83 262 M223.83 268 L223.83 268 223.83 256 M229.83 262 Q 254.11 262, 278.38 140.13 T 326.93 18.25 M 338.93 18.25 m -1, 0 a 1,1 0 1,0 2,0 a 1,1 0 1,0 -2,0 M 338.93 18.25 m -0.5, 0 a 0.5,0.5 0 1,0 1,0 a 0.5,0.5 0 1,0 -1,0  M338.93 18.25 L338.93 18.25 326.93 18.25 M332.93 24.25 L332.93 24.25 332.93 12.25" id="h3782673181" class="r"></path><path d="M 217.83 262 m -1, 0 a 1,1 0 1,0 2,0 a 1,1 0 1,0 -2,0 M 217.83 262 m -0.5, 0 a 0.5,0.5 0 1,0 1,0 a 0.5,0.5 0 1,0 -1,0  M217.83 262 L217.83 262 229.83 262 M223.83 268 L223.83 268 223.83 256 M229.83 262 Q 255.63 262, 281.42 241.65 T 333 221.29000000000002 M 345 221.29000000000002 m -1, 0 a 1,1 0 1,0 2,0 a 1,1 0 1,0 -2,0 M 345 221.29000000000002 m -0.5, 0 a 0.5,0.5 0 1,0 1,0 a 0.5,0.5 0 1,0 -1,0  M345 221.29000000000002 L345 221.29000000000002 333 221.29000000000002 M339 227.29000000000002 L339 227.29000000000002 339 215.29000000000002" id="h1755132505" class="r"></path><path d="M 217.83 262 m -1, 0 a 1,1 0 1,0 2,0 a 1,1 0 1,0 -2,0 M 217.83 262 m -0.5, 0 a 0.5,0.5 0 1,0 1,0 a 0.5,0.5 0 1,0 -1,0  M217.83 262 L217.83 262 229.83 262 M223.83 268 L223.83 268 223.83 256 M229.83 262 Q 258.3 262, 286.77 348.08 T 343.71 434.15 M 355.71 434.15 m -1, 0 a 1,1 0 1,0 2,0 a 1,1 0 1,0 -2,0 M 355.71 434.15 m -0.5, 0 a 0.5,0.5 0 1,0 1,0 a 0.5,0.5 0 1,0 -1,0  M355.71 434.15 L355.71 434.15 343.71 434.15 M349.71 440.15 L349.71 440.15 349.71 428.15" id="h1639008645" class="r"></path><path d="M 217.83 262 m -1, 0 a 1,1 0 1,0 2,0 a 1,1 0 1,0 -2,0 M 217.83 262 m -0.5, 0 a 0.5,0.5 0 1,0 1,0 a 0.5,0.5 0 1,0 -1,0  M217.83 262 L217.83 262 229.83 262 M223.83 268 L223.83 268 223.83 256 M229.83 262 Q 254.5 262, 279.17 61.91 T 328.5 -138.19 M 340.5 -138.19 m -1, 0 a 1,1 0 1,0 2,0 a 1,1 0 1,0 -2,0 M 340.5 -138.19 m -0.5, 0 a 0.5,0.5 0 1,0 1,0 a 0.5,0.5 0 1,0 -1,0  M340.5 -138.19 L340.5 -138.19 328.5 -138.19 M334.5 -132.19 L334.5 -132.19 334.5 -144.19" id="h3967566606" class="r"></path><path d="M 217.83 112 m -1, 0 a 1,1 0 1,0 2,0 a 1,1 0 1,0 -2,0 M 217.83 112 m -0.5, 0 a 0.5,0.5 0 1,0 1,0 a 0.5,0.5 0 1,0 -1,0  M217.83 112 L217.83 112 229.83 112 M 217.83 118 m -1, 0 a 1,1 0 1,0 2,0 a 1,1 0 1,0 -2,0 M 217.83 118 m -0.5, 0 a 0.5,0.5 0 1,0 1,0 a 0.5,0.5 0 1,0 -1,0  M217.83 118 L217.83 118 224.83 112 217.83 106 M 217.83 106 m -1, 0 a 1,1 0 1,0 2,0 a 1,1 0 1,0 -2,0 M 217.83 106 m -0.5, 0 a 0.5,0.5 0 1,0 1,0 a 0.5,0.5 0 1,0 -1,0  M229.83 112 Q 254.5 112, 279.17 -38.09 T 328.5 -188.19 M 340.5 -188.19 m -1, 0 a 1,1 0 1,0 2,0 a 1,1 0 1,0 -2,0 M 340.5 -188.19 m -0.5, 0 a 0.5,0.5 0 1,0 1,0 a 0.5,0.5 0 1,0 -1,0  M340.5 -188.19 L340.5 -188.19 328.5 -188.19 M334.5 -182.19 L334.5 -182.19 334.5 -194.19" id="h133153459" class="r"></path><path d="M 473.71 171.29000000000002 m -1, 0 a 1,1 0 1,0 2,0 a 1,1 0 1,0 -2,0 M 473.71 171.29000000000002 m -0.5, 0 a 0.5,0.5 0 1,0 1,0 a 0.5,0.5 0 1,0 -1,0  M473.71 171.29000000000002 L473.71 171.29000000000002 485.71 171.29000000000002 M 473.71 177.29000000000002 m -1, 0 a 1,1 0 1,0 2,0 a 1,1 0 1,0 -2,0 M 473.71 177.29000000000002 m -0.5, 0 a 0.5,0.5 0 1,0 1,0 a 0.5,0.5 0 1,0 -1,0  M473.71 177.29000000000002 L473.71 177.29000000000002 480.71 171.29000000000002 473.71 165.29000000000002 M 473.71 165.29000000000002 m -1, 0 a 1,1 0 1,0 2,0 a 1,1 0 1,0 -2,0 M 473.71 165.29000000000002 m -0.5, 0 a 0.5,0.5 0 1,0 1,0 a 0.5,0.5 0 1,0 -1,0  M485.71 171.29000000000002 Q 536.46 171.29000000000002, 587.21 212.72 T 688.71 254.14 M 700.71 254.14 m -1, 0 a 1,1 0 1,0 2,0 a 1,1 0 1,0 -2,0 M 700.71 254.14 m -0.5, 0 a 0.5,0.5 0 1,0 1,0 a 0.5,0.5 0 1,0 -1,0  M700.71 254.14 L700.71 254.14 688.71 254.14 M694.71 260.14 L694.71 260.14 694.71 248.14" id="h503551305" class="r"></path><path d="M 345 196.29000000000002 m -1, 0 a 1,1 0 1,0 2,0 a 1,1 0 1,0 -2,0 M 345 196.29000000000002 m -0.5, 0 a 0.5,0.5 0 1,0 1,0 a 0.5,0.5 0 1,0 -1,0  M345 196.29000000000002 L345 196.29000000000002 333 196.29000000000002 M 345 202.29000000000002 m -1, 0 a 1,1 0 1,0 2,0 a 1,1 0 1,0 -2,0 M 345 202.29000000000002 m -0.5, 0 a 0.5,0.5 0 1,0 1,0 a 0.5,0.5 0 1,0 -1,0  M345 202.29000000000002 L345 202.29000000000002 338 196.29000000000002 345 190.29000000000002 M 345 190.29000000000002 m -1, 0 a 1,1 0 1,0 2,0 a 1,1 0 1,0 -2,0 M 345 190.29000000000002 m -0.5, 0 a 0.5,0.5 0 1,0 1,0 a 0.5,0.5 0 1,0 -1,0  M333 196.29000000000002 Q 307.21 196.29000000000002, 281.42 141.65 T 229.83 87 M 217.83 87 m -1, 0 a 1,1 0 1,0 2,0 a 1,1 0 1,0 -2,0 M 217.83 87 m -0.5, 0 a 0.5,0.5 0 1,0 1,0 a 0.5,0.5 0 1,0 -1,0  M217.83 87 L217.83 87 229.83 87 M 217.83 93 m -1, 0 a 1,1 0 1,0 2,0 a 1,1 0 1,0 -2,0 M 217.83 93 m -0.5, 0 a 0.5,0.5 0 1,0 1,0 a 0.5,0.5 0 1,0 -1,0  M217.83 93 L217.83 93 224.83 87 217.83 81 M 217.83 81 m -1, 0 a 1,1 0 1,0 2,0 a 1,1 0 1,0 -2,0 M 217.83 81 m -0.5, 0 a 0.5,0.5 0 1,0 1,0 a 0.5,0.5 0 1,0 -1,0 " id="h2045515930" class="r"></path><path d="M 484.42 384.15 m -1, 0 a 1,1 0 1,0 2,0 a 1,1 0 1,0 -2,0 M 484.42 384.15 m -0.5, 0 a 0.5,0.5 0 1,0 1,0 a 0.5,0.5 0 1,0 -1,0  M484.42 384.15 L484.42 384.15 496.42 384.15 M 484.42 390.15 m -1, 0 a 1,1 0 1,0 2,0 a 1,1 0 1,0 -2,0 M 484.42 390.15 m -0.5, 0 a 0.5,0.5 0 1,0 1,0 a 0.5,0.5 0 1,0 -1,0  M484.42 390.15 L484.42 390.15 491.42 384.15 484.42 378.15 M 484.42 378.15 m -1, 0 a 1,1 0 1,0 2,0 a 1,1 0 1,0 -2,0 M 484.42 378.15 m -0.5, 0 a 0.5,0.5 0 1,0 1,0 a 0.5,0.5 0 1,0 -1,0  M496.42 384.15 Q 544.5 384.15, 592.57 319.15 T 688.71 254.14 M 700.71 254.14 m -1, 0 a 1,1 0 1,0 2,0 a 1,1 0 1,0 -2,0 M 700.71 254.14 m -0.5, 0 a 0.5,0.5 0 1,0 1,0 a 0.5,0.5 0 1,0 -1,0  M700.71 254.14 L700.71 254.14 688.71 254.14 M694.71 260.14 L694.71 260.14 694.71 248.14" id="h3233325729" class="r"></path><path d="M 355.71 409.15 m -1, 0 a 1,1 0 1,0 2,0 a 1,1 0 1,0 -2,0 M 355.71 409.15 m -0.5, 0 a 0.5,0.5 0 1,0 1,0 a 0.5,0.5 0 1,0 -1,0  M355.71 409.15 L355.71 409.15 343.71 409.15 M 355.71 415.15 m -1, 0 a 1,1 0 1,0 2,0 a 1,1 0 1,0 -2,0 M 355.71 415.15 m -0.5, 0 a 0.5,0.5 0 1,0 1,0 a 0.5,0.5 0 1,0 -1,0  M355.71 415.15 L355.71 415.15 348.71 409.15 355.71 403.15 M 355.71 403.15 m -1, 0 a 1,1 0 1,0 2,0 a 1,1 0 1,0 -2,0 M 355.71 403.15 m -0.5, 0 a 0.5,0.5 0 1,0 1,0 a 0.5,0.5 0 1,0 -1,0  M343.71 409.15 Q 315.24 409.15, 286.77 248.08 T 229.83 87 M 217.83 87 m -1, 0 a 1,1 0 1,0 2,0 a 1,1 0 1,0 -2,0 M 217.83 87 m -0.5, 0 a 0.5,0.5 0 1,0 1,0 a 0.5,0.5 0 1,0 -1,0  M217.83 87 L217.83 87 229.83 87 M 217.83 93 m -1, 0 a 1,1 0 1,0 2,0 a 1,1 0 1,0 -2,0 M 217.83 93 m -0.5, 0 a 0.5,0.5 0 1,0 1,0 a 0.5,0.5 0 1,0 -1,0  M217.83 93 L217.83 93 224.83 87 217.83 81 M 217.83 81 m -1, 0 a 1,1 0 1,0 2,0 a 1,1 0 1,0 -2,0 M 217.83 81 m -0.5, 0 a 0.5,0.5 0 1,0 1,0 a 0.5,0.5 0 1,0 -1,0 " id="h1736270986" class="r"></path><path d="M 700.71 304.14 m -1, 0 a 1,1 0 1,0 2,0 a 1,1 0 1,0 -2,0 M 700.71 304.14 m -0.5, 0 a 0.5,0.5 0 1,0 1,0 a 0.5,0.5 0 1,0 -1,0  M700.71 304.14 L700.71 304.14 688.71 304.14 M694.71 310.14 L694.71 310.14 694.71 298.14 M688.71 304.14 Q 637.96 304.14, 587.21 262.72 T 485.71 221.29000000000002 M 473.71 221.29000000000002 m -1, 0 a 1,1 0 1,0 2,0 a 1,1 0 1,0 -2,0 M 473.71 221.29000000000002 m -0.5, 0 a 0.5,0.5 0 1,0 1,0 a 0.5,0.5 0 1,0 -1,0  M473.71 221.29000000000002 L473.71 221.29000000000002 485.71 221.29000000000002 M479.71 227.29000000000002 L479.71 227.29000000000002 479.71 215.29000000000002" id="h599338214" class="r"></path><path d="M 700.71 304.14 m -1, 0 a 1,1 0 1,0 2,0 a 1,1 0 1,0 -2,0 M 700.71 304.14 m -0.5, 0 a 0.5,0.5 0 1,0 1,0 a 0.5,0.5 0 1,0 -1,0  M700.71 304.14 L700.71 304.14 688.71 304.14 M694.71 310.14 L694.71 310.14 694.71 298.14 M688.71 304.14 Q 640.64 304.14, 592.57 369.15 T 496.42 434.15 M 484.42 434.15 m -1, 0 a 1,1 0 1,0 2,0 a 1,1 0 1,0 -2,0 M 484.42 434.15 m -0.5, 0 a 0.5,0.5 0 1,0 1,0 a 0.5,0.5 0 1,0 -1,0  M484.42 434.15 L484.42 434.15 496.42 434.15 M490.42 440.15 L490.42 440.15 490.42 428.15" id="h249630371" class="r"></path></g><g class="hrs"></g><g class="ts"><svg width="187.83" height="250" x="30" y="30" id="h3299212598" class="t"><rect height="40" width="187.83" class="th"></rect><text x="13" y="25" class="tht">Employees</text><rect height="210" width="187.83" class="t-bg" y="40"></rect><text x="13" y="61" class="tf pk">emp_no<tspan x="174.83" class="ty">INT</tspan></text><path d="M7,14A2,2 0 0,1 5,12A2,2 0 0,1 7,10A2,2 0 0,1 9,12A2,2 0 0,1 7,14M12.65,10C11.83,7.67 9.61,6 7, 6A6, 6 0 0, 0 1, 12A6, 6 0 0, 0 7, 18C9.61, 18 11.83, 16.33 12.65, 14H17V18H21V14H23V10H12.65Z" class="i pk" transform="translate(135.499921875, 48) scale(0.65)"></path><text x="13" y="86" class="tf fk">emp_title_id<tspan x="174.83" class="ty">INT</tspan></text><text x="13" y="111" class="tf">birth_date<tspan x="174.83" class="ty">INT</tspan></text><text x="13" y="136" class="tf">first_name<tspan x="174.83" class="ty">VARCHAR(255)</tspan></text><text x="13" y="161" class="tf">last_name<tspan x="174.83" class="ty">VARCHAR(255)</tspan></text><text x="13" y="186" class="tf">sex<tspan x="174.83" class="ty">VARCHAR(255)</tspan></text><text x="13" y="211" class="tf">hire_date<tspan x="174.83" class="ty">INT</tspan></text><text x="13" y="236" class="tf">...</text></svg><svg width="128.71" height="125" x="345" y="114.29" id="h2853416718" class="t"><rect height="40" width="128.71" class="th"></rect><text x="13" y="25" class="tht">Dept_managers</text><rect height="85" width="128.71" class="t-bg" y="40"></rect><text x="13" y="61" class="tf pk">dept_no<tspan x="115.71000000000001" class="ty">INT</tspan></text><path d="M7,14A2,2 0 0,1 5,12A2,2 0 0,1 7,10A2,2 0 0,1 9,12A2,2 0 0,1 7,14M12.65,10C11.83,7.67 9.61,6 7, 6A6, 6 0 0, 0 1, 12A6, 6 0 0, 0 7, 18C9.61, 18 11.83, 16.33 12.65, 14H17V18H21V14H23V10H12.65Z" class="i pk" transform="translate(76.37992187500001, 48) scale(0.65)"></path><text x="13" y="86" class="tf pk">emp_no<tspan x="115.71000000000001" class="ty">INT</tspan></text><path d="M7,14A2,2 0 0,1 5,12A2,2 0 0,1 7,10A2,2 0 0,1 9,12A2,2 0 0,1 7,14M12.65,10C11.83,7.67 9.61,6 7, 6A6, 6 0 0, 0 1, 12A6, 6 0 0, 0 7, 18C9.61, 18 11.83, 16.33 12.65, 14H17V18H21V14H23V10H12.65Z" class="i pk" transform="translate(76.37992187500001, 73) scale(0.65)"></path><text x="13" y="111" class="tf">...</text></svg><svg width="128.71" height="125" x="355.71" y="327.15" id="h4086156755" class="t"><rect height="40" width="128.71" class="th"></rect><text x="13" y="25" class="tht">Dept_emp</text><rect height="85" width="128.71" class="t-bg" y="40"></rect><text x="13" y="61" class="tf pk">dept_no<tspan x="115.71000000000001" class="ty">INT</tspan></text><path d="M7,14A2,2 0 0,1 5,12A2,2 0 0,1 7,10A2,2 0 0,1 9,12A2,2 0 0,1 7,14M12.65,10C11.83,7.67 9.61,6 7, 6A6, 6 0 0, 0 1, 12A6, 6 0 0, 0 7, 18C9.61, 18 11.83, 16.33 12.65, 14H17V18H21V14H23V10H12.65Z" class="i pk" transform="translate(76.37992187500001, 48) scale(0.65)"></path><text x="13" y="86" class="tf pk">emp_no<tspan x="115.71000000000001" class="ty">INT</tspan></text><path d="M7,14A2,2 0 0,1 5,12A2,2 0 0,1 7,10A2,2 0 0,1 9,12A2,2 0 0,1 7,14M12.65,10C11.83,7.67 9.61,6 7, 6A6, 6 0 0, 0 1, 12A6, 6 0 0, 0 7, 18C9.61, 18 11.83, 16.33 12.65, 14H17V18H21V14H23V10H12.65Z" class="i pk" transform="translate(76.37992187500001, 73) scale(0.65)"></path><text x="13" y="111" class="tf">...</text></svg><svg width="132.03" height="125" x="338.93" y="-88.75" id="h3858243705" class="t"><rect height="40" width="132.03" class="th"></rect><text x="13" y="25" class="tht">Salaries</text><rect height="85" width="132.03" class="t-bg" y="40"></rect><text x="13" y="61" class="tf pk">empt_no<tspan x="119.03" class="ty">INT</tspan></text><path d="M7,14A2,2 0 0,1 5,12A2,2 0 0,1 7,10A2,2 0 0,1 9,12A2,2 0 0,1 7,14M12.65,10C11.83,7.67 9.61,6 7, 6A6, 6 0 0, 0 1, 12A6, 6 0 0, 0 7, 18C9.61, 18 11.83, 16.33 12.65, 14H17V18H21V14H23V10H12.65Z" class="i pk" transform="translate(79.699921875, 48) scale(0.65)"></path><text x="13" y="86" class="tf">salary<tspan x="119.03" class="ty">INT</tspan></text><text x="13" y="111" class="tf">...</text></svg><svg width="150.48" height="125" x="340.5" y="-245.19" id="h3517680912" class="t"><rect height="40" width="150.48" class="th"></rect><text x="13" y="25" class="tht">Titles</text><rect height="85" width="150.48" class="t-bg" y="40"></rect><text x="13" y="61" class="tf pk">title_id<tspan x="137.48" class="ty">INT</tspan></text><path d="M7,14A2,2 0 0,1 5,12A2,2 0 0,1 7,10A2,2 0 0,1 9,12A2,2 0 0,1 7,14M12.65,10C11.83,7.67 9.61,6 7, 6A6, 6 0 0, 0 1, 12A6, 6 0 0, 0 7, 18C9.61, 18 11.83, 16.33 12.65, 14H17V18H21V14H23V10H12.65Z" class="i pk" transform="translate(98.14992187499999, 48) scale(0.65)"></path><text x="13" y="86" class="tf">title<tspan x="137.48" class="ty">VARCHAR(255)</tspan></text><text x="13" y="111" class="tf">...</text></svg><svg width="191.85" height="125" x="700.71" y="197.14" id="h3708248841" class="t"><rect height="40" width="191.85" class="th"></rect><text x="13" y="25" class="tht">Departments</text><rect height="85" width="191.85" class="t-bg" y="40"></rect><text x="13" y="61" class="tf fk">dept_no<tspan x="178.85" class="ty">INT</tspan></text><text x="13" y="86" class="tf">dept_name<tspan x="178.85" class="ty">VARCHAR(255)</tspan></text><text x="13" y="111" class="tf">...</text></svg></g></g><text class="qdbd-link" x="10" y="20">www.quickdatabasediagrams.com</text></svg>